<svg viewBox="0 0 200 200" xmlns="http://www.w3.org/2000/svg">
  <path fill="#fEfEfE" d="M29.7,-52.3C36.2,-47.7,37.5,-35.1,46.5,-25C55.4,-15,72,-7.5,77.9,3.4C83.8,14.3,79,28.6,67.4,34.1C55.9,39.7,37.6,36.5,25.2,34.8C12.8,33,6.4,32.6,-2.2,36.4C-10.8,40.2,-21.6,48.2,-32.2,48.9C-42.8,49.7,-53.2,43.2,-60.6,33.8C-68,24.5,-72.4,12.2,-74.9,-1.4C-77.4,-15.1,-78,-30.3,-68.5,-36C-59.1,-41.8,-39.6,-38.3,-26.5,-39.1C-13.4,-39.9,-6.7,-45.1,2.5,-49.4C11.6,-53.6,23.2,-57,29.7,-52.3Z" transform="translate(100 100)" />
</svg>